<svg xmlns="http://www.w3.org/2000/svg" viewBox="0 0 32 32" width="32" height="32">
  <defs>
    <linearGradient id="fogo" x1="16" y1="4" x2="16" y2="29" gradientUnits="userSpaceOnUse">
      <stop offset="0" stop-color="#ffd76b"/>
      <stop offset="0.45" stop-color="#f0902a"/>
      <stop offset="1" stop-color="#d2451f"/>
    </linearGradient>
  </defs>
  <rect width="32" height="32" rx="7" fill="#0c1430"/>
  <path
    d="M16 4 C 21 10 21 13.5 19.8 17 C 24 21.5 20.5 29 16 29 C 11.5 29 8 21.5 12.2 17 C 11 13.5 13 10 16 4 Z"
    fill="url(#fogo)"/>
  <path
    d="M16 13 C 18.2 16 18.2 18 17.2 20 C 19.2 22.2 17.4 25.5 16 25.5 C 14.6 25.5 12.8 23.4 14.8 20.5 C 14 18 15 16 16 13 Z"
    fill="#fff3c4"/>
</svg>
